<svg xmlns="http://www.w3.org/2000/svg" viewBox="0 0 560.0 592.0" font-family="JetBrains Mono, ui-monospace, Menlo, monospace" role="img" aria-label="Dot map of India; 15 visited states highlighted"><path d="M116 52h.01M124 52h.01M108 60h.01M116 60h.01M124 60h.01M132 60h.01M140 60h.01M108 68h.01M116 68h.01M124 68h.01M132 68h.01M140 68h.01M148 68h.01M108 76h.01M116 76h.01M124 76h.01M132 76h.01M140 76h.01M148 76h.01M156 76h.01M108 84h.01M116 84h.01M124 84h.01M132 84h.01M140 84h.01M148 84h.01M156 84h.01M132 92h.01M140 92h.01M148 92h.01M132 108h.01M140 108h.01M148 108h.01M132 116h.01M140 116h.01M148 116h.01M132 124h.01M140 124h.01M148 124h.01M156 124h.01M164 124h.01M116 132h.01M124 132h.01M132 132h.01M140 132h.01M148 132h.01M156 132h.01M164 132h.01M172 132h.01M116 140h.01M124 140h.01M132 140h.01M140 140h.01M148 140h.01M156 140h.01M164 140h.01M172 140h.01M180 140h.01M188 140h.01M132 148h.01M140 148h.01M148 148h.01M156 148h.01M164 148h.01M172 148h.01M180 148h.01M196 148h.01M140 156h.01M148 156h.01M156 156h.01M164 156h.01M172 156h.01M180 156h.01M188 156h.01M196 156h.01M204 156h.01M508 156h.01M532 156h.01M148 164h.01M156 164h.01M164 164h.01M172 164h.01M180 164h.01M188 164h.01M196 164h.01M204 164h.01M212 164h.01M500 164h.01M508 164h.01M516 164h.01M524 164h.01M532 164h.01M540 164h.01M148 172h.01M156 172h.01M164 172h.01M172 172h.01M180 172h.01M188 172h.01M196 172h.01M204 172h.01M212 172h.01M220 172h.01M228 172h.01M236 172h.01M244 172h.01M484 172h.01M492 172h.01M500 172h.01M508 172h.01M516 172h.01M524 172h.01M532 172h.01M540 172h.01M156 180h.01M164 180h.01M172 180h.01M180 180h.01M188 180h.01M196 180h.01M204 180h.01M212 180h.01M220 180h.01M228 180h.01M236 180h.01M244 180h.01M252 180h.01M476 180h.01M484 180h.01M492 180h.01M500 180h.01M508 180h.01M516 180h.01M524 180h.01M532 180h.01M540 180h.01M548 180h.01M556 180h.01M180 188h.01M188 188h.01M196 188h.01M204 188h.01M212 188h.01M220 188h.01M228 188h.01M236 188h.01M244 188h.01M252 188h.01M260 188h.01M268 188h.01M276 188h.01M388 188h.01M396 188h.01M452 188h.01M460 188h.01M468 188h.01M476 188h.01M484 188h.01M492 188h.01M500 188h.01M508 188h.01M516 188h.01M524 188h.01M532 188h.01M540 188h.01M548 188h.01M188 196h.01M196 196h.01M204 196h.01M212 196h.01M220 196h.01M228 196h.01M236 196h.01M244 196h.01M252 196h.01M260 196h.01M268 196h.01M276 196h.01M284 196h.01M292 196h.01M300 196h.01M308 196h.01M316 196h.01M388 196h.01M396 196h.01M460 196h.01M468 196h.01M476 196h.01M484 196h.01M492 196h.01M500 196h.01M508 196h.01M516 196h.01M524 196h.01M532 196h.01M180 204h.01M204 204h.01M212 204h.01M220 204h.01M228 204h.01M236 204h.01M244 204h.01M252 204h.01M260 204h.01M268 204h.01M276 204h.01M284 204h.01M292 204h.01M300 204h.01M308 204h.01M316 204h.01M324 204h.01M388 204h.01M396 204h.01M404 204h.01M428 204h.01M452 204h.01M460 204h.01M468 204h.01M476 204h.01M484 204h.01M492 204h.01M500 204h.01M508 204h.01M516 204h.01M220 212h.01M228 212h.01M236 212h.01M244 212h.01M252 212h.01M260 212h.01M268 212h.01M276 212h.01M284 212h.01M292 212h.01M300 212h.01M308 212h.01M316 212h.01M324 212h.01M332 212h.01M340 212h.01M348 212h.01M356 212h.01M364 212h.01M372 212h.01M380 212h.01M388 212h.01M396 212h.01M404 212h.01M412 212h.01M420 212h.01M428 212h.01M436 212h.01M444 212h.01M452 212h.01M460 212h.01M468 212h.01M476 212h.01M484 212h.01M492 212h.01M500 212h.01M508 212h.01M516 212h.01M212 220h.01M220 220h.01M228 220h.01M236 220h.01M244 220h.01M252 220h.01M260 220h.01M268 220h.01M276 220h.01M284 220h.01M292 220h.01M300 220h.01M308 220h.01M316 220h.01M324 220h.01M332 220h.01M340 220h.01M348 220h.01M356 220h.01M364 220h.01M372 220h.01M380 220h.01M420 220h.01M428 220h.01M436 220h.01M444 220h.01M452 220h.01M460 220h.01M468 220h.01M476 220h.01M484 220h.01M492 220h.01M500 220h.01M508 220h.01M204 228h.01M212 228h.01M220 228h.01M228 228h.01M236 228h.01M244 228h.01M252 228h.01M260 228h.01M268 228h.01M276 228h.01M284 228h.01M292 228h.01M300 228h.01M308 228h.01M316 228h.01M324 228h.01M332 228h.01M340 228h.01M348 228h.01M356 228h.01M364 228h.01M372 228h.01M380 228h.01M388 228h.01M420 228h.01M428 228h.01M436 228h.01M444 228h.01M452 228h.01M460 228h.01M468 228h.01M476 228h.01M484 228h.01M492 228h.01M500 228h.01M508 228h.01M236 236h.01M252 236h.01M260 236h.01M268 236h.01M276 236h.01M284 236h.01M292 236h.01M300 236h.01M308 236h.01M316 236h.01M324 236h.01M332 236h.01M340 236h.01M348 236h.01M356 236h.01M364 236h.01M372 236h.01M380 236h.01M388 236h.01M468 236h.01M476 236h.01M484 236h.01M492 236h.01M500 236h.01M508 236h.01M196 244h.01M204 244h.01M276 244h.01M284 244h.01M292 244h.01M300 244h.01M308 244h.01M316 244h.01M324 244h.01M332 244h.01M340 244h.01M348 244h.01M356 244h.01M364 244h.01M372 244h.01M380 244h.01M468 244h.01M476 244h.01M484 244h.01M492 244h.01M500 244h.01M204 252h.01M284 252h.01M292 252h.01M300 252h.01M308 252h.01M316 252h.01M324 252h.01M332 252h.01M340 252h.01M348 252h.01M356 252h.01M364 252h.01M372 252h.01M380 252h.01M388 252h.01M460 252h.01M468 252h.01M476 252h.01M484 252h.01M492 252h.01M500 252h.01M260 260h.01M284 260h.01M292 260h.01M300 260h.01M308 260h.01M316 260h.01M324 260h.01M332 260h.01M340 260h.01M348 260h.01M356 260h.01M364 260h.01M372 260h.01M380 260h.01M388 260h.01M444 260h.01M452 260h.01M460 260h.01M468 260h.01M476 260h.01M268 268h.01M276 268h.01M284 268h.01M292 268h.01M300 268h.01M308 268h.01M316 268h.01M324 268h.01M332 268h.01M340 268h.01M348 268h.01M356 268h.01M364 268h.01M372 268h.01M380 268h.01M388 268h.01M444 268h.01M452 268h.01M468 268h.01M476 268h.01M268 276h.01M276 276h.01M284 276h.01M292 276h.01M300 276h.01M308 276h.01M316 276h.01M324 276h.01M332 276h.01M340 276h.01M348 276h.01M356 276h.01M364 276h.01M372 276h.01M380 276h.01M388 276h.01M396 276h.01M452 276h.01M468 276h.01M476 276h.01M260 284h.01M268 284h.01M276 284h.01M284 284h.01M292 284h.01M300 284h.01M308 284h.01M316 284h.01M324 284h.01M332 284h.01M340 284h.01M348 284h.01M356 284h.01M364 284h.01M372 284h.01M380 284h.01M388 284h.01M396 284h.01M468 284h.01M476 284h.01M252 292h.01M260 292h.01M268 292h.01M276 292h.01M284 292h.01M292 292h.01M332 292h.01M340 292h.01M364 292h.01M372 292h.01M380 292h.01M388 292h.01M396 292h.01M476 292h.01M244 300h.01M252 300h.01M260 300h.01M268 300h.01M276 300h.01M284 300h.01M292 300h.01M372 300h.01M396 300h.01M244 308h.01M252 308h.01M260 308h.01M268 308h.01M276 308h.01M284 308h.01M244 316h.01M252 316h.01M260 316h.01M268 316h.01M276 316h.01M244 324h.01M252 324h.01M260 324h.01M268 324h.01M244 332h.01M252 332h.01M260 332h.01M268 332h.01M244 340h.01M252 340h.01M260 340h.01M244 348h.01M252 348h.01M260 348h.01M268 348h.01M236 356h.01M244 356h.01M252 356h.01M260 356h.01M268 356h.01M244 364h.01M252 364h.01M260 364h.01M252 372h.01M476 460h.01M492 580h.01" stroke="#3d4854" stroke-width="5.76" stroke-linecap="round" fill="none"/><path d="M124 12h.01M132 12h.01M140 12h.01M100 20h.01M108 20h.01M116 20h.01M124 20h.01M132 20h.01M140 20h.01M148 20h.01M92 28h.01M100 28h.01M108 28h.01M116 28h.01M124 28h.01M132 28h.01M140 28h.01M148 28h.01M156 28h.01M164 28h.01M108 36h.01M116 36h.01M124 36h.01M132 36h.01M140 36h.01M148 36h.01M156 36h.01M164 36h.01M172 36h.01M196 36h.01M204 36h.01M212 36h.01M220 36h.01M228 36h.01M116 44h.01M124 44h.01M132 44h.01M140 44h.01M148 44h.01M156 44h.01M164 44h.01M172 44h.01M180 44h.01M188 44h.01M196 44h.01M204 44h.01M212 44h.01M220 44h.01M228 44h.01M132 52h.01M140 52h.01M148 52h.01M156 52h.01M164 52h.01M172 52h.01M180 52h.01M188 52h.01M196 52h.01M204 52h.01M212 52h.01M220 52h.01M228 52h.01M148 60h.01M156 60h.01M164 60h.01M172 60h.01M180 60h.01M188 60h.01M196 60h.01M204 60h.01M212 60h.01M220 60h.01M156 68h.01M164 68h.01M172 68h.01M180 68h.01M188 68h.01M196 68h.01M204 68h.01M164 76h.01M172 76h.01M180 76h.01M188 76h.01M196 76h.01M204 76h.01M164 84h.01M172 84h.01M180 84h.01M188 84h.01M196 84h.01M204 84h.01M212 84h.01M156 92h.01M164 92h.01M172 92h.01M180 92h.01M188 92h.01M196 92h.01M204 92h.01M212 92h.01M220 92h.01M148 100h.01M156 100h.01M164 100h.01M172 100h.01M180 100h.01M188 100h.01M196 100h.01M156 108h.01M164 108h.01M172 108h.01M180 108h.01M188 108h.01M196 108h.01M204 108h.01M156 116h.01M164 116h.01M172 116h.01M180 116h.01M188 116h.01M196 116h.01M204 116h.01M212 116h.01M172 124h.01M180 124h.01M188 124h.01M196 124h.01M204 124h.01M212 124h.01M180 132h.01M188 132h.01M196 132h.01M204 132h.01M212 132h.01M220 132h.01M228 132h.01M196 140h.01M204 140h.01M212 140h.01M220 140h.01M228 140h.01M236 140h.01M244 140h.01M108 148h.01M116 148h.01M124 148h.01M188 148h.01M204 148h.01M212 148h.01M220 148h.01M228 148h.01M100 156h.01M108 156h.01M116 156h.01M124 156h.01M132 156h.01M212 156h.01M220 156h.01M228 156h.01M92 164h.01M100 164h.01M108 164h.01M116 164h.01M124 164h.01M132 164h.01M140 164h.01M220 164h.01M228 164h.01M84 172h.01M92 172h.01M100 172h.01M108 172h.01M116 172h.01M124 172h.01M132 172h.01M140 172h.01M76 180h.01M84 180h.01M92 180h.01M100 180h.01M108 180h.01M116 180h.01M124 180h.01M132 180h.01M140 180h.01M148 180h.01M44 188h.01M52 188h.01M60 188h.01M68 188h.01M76 188h.01M84 188h.01M92 188h.01M100 188h.01M108 188h.01M116 188h.01M124 188h.01M132 188h.01M140 188h.01M148 188h.01M156 188h.01M164 188h.01M172 188h.01M36 196h.01M44 196h.01M52 196h.01M60 196h.01M68 196h.01M76 196h.01M84 196h.01M92 196h.01M100 196h.01M108 196h.01M116 196h.01M124 196h.01M132 196h.01M140 196h.01M148 196h.01M156 196h.01M164 196h.01M172 196h.01M180 196h.01M36 204h.01M44 204h.01M52 204h.01M60 204h.01M68 204h.01M76 204h.01M84 204h.01M92 204h.01M100 204h.01M108 204h.01M116 204h.01M124 204h.01M132 204h.01M140 204h.01M148 204h.01M156 204h.01M164 204h.01M172 204h.01M188 204h.01M196 204h.01M44 212h.01M52 212h.01M60 212h.01M68 212h.01M76 212h.01M84 212h.01M92 212h.01M100 212h.01M108 212h.01M116 212h.01M124 212h.01M132 212h.01M140 212h.01M148 212h.01M156 212h.01M164 212h.01M172 212h.01M180 212h.01M188 212h.01M196 212h.01M204 212h.01M212 212h.01M44 220h.01M52 220h.01M60 220h.01M68 220h.01M76 220h.01M84 220h.01M92 220h.01M100 220h.01M108 220h.01M116 220h.01M124 220h.01M132 220h.01M140 220h.01M148 220h.01M156 220h.01M164 220h.01M172 220h.01M180 220h.01M188 220h.01M196 220h.01M204 220h.01M52 228h.01M60 228h.01M68 228h.01M76 228h.01M84 228h.01M92 228h.01M100 228h.01M108 228h.01M116 228h.01M124 228h.01M132 228h.01M140 228h.01M148 228h.01M156 228h.01M164 228h.01M172 228h.01M180 228h.01M188 228h.01M196 228h.01M60 236h.01M68 236h.01M76 236h.01M84 236h.01M92 236h.01M100 236h.01M108 236h.01M116 236h.01M124 236h.01M132 236h.01M140 236h.01M148 236h.01M156 236h.01M164 236h.01M172 236h.01M180 236h.01M188 236h.01M196 236h.01M204 236h.01M212 236h.01M220 236h.01M228 236h.01M244 236h.01M60 244h.01M68 244h.01M76 244h.01M84 244h.01M92 244h.01M100 244h.01M108 244h.01M116 244h.01M124 244h.01M132 244h.01M140 244h.01M148 244h.01M156 244h.01M164 244h.01M172 244h.01M180 244h.01M188 244h.01M212 244h.01M220 244h.01M228 244h.01M236 244h.01M244 244h.01M252 244h.01M260 244h.01M268 244h.01M44 252h.01M60 252h.01M68 252h.01M76 252h.01M84 252h.01M92 252h.01M100 252h.01M108 252h.01M116 252h.01M124 252h.01M132 252h.01M140 252h.01M148 252h.01M156 252h.01M164 252h.01M172 252h.01M180 252h.01M188 252h.01M196 252h.01M212 252h.01M220 252h.01M228 252h.01M236 252h.01M244 252h.01M252 252h.01M260 252h.01M268 252h.01M276 252h.01M4 260h.01M12 260h.01M20 260h.01M28 260h.01M36 260h.01M44 260h.01M52 260h.01M60 260h.01M68 260h.01M76 260h.01M84 260h.01M92 260h.01M100 260h.01M108 260h.01M116 260h.01M124 260h.01M132 260h.01M140 260h.01M148 260h.01M156 260h.01M164 260h.01M172 260h.01M180 260h.01M188 260h.01M196 260h.01M204 260h.01M212 260h.01M220 260h.01M228 260h.01M236 260h.01M244 260h.01M252 260h.01M268 260h.01M276 260h.01M12 268h.01M20 268h.01M28 268h.01M36 268h.01M44 268h.01M52 268h.01M60 268h.01M68 268h.01M76 268h.01M84 268h.01M92 268h.01M100 268h.01M108 268h.01M116 268h.01M124 268h.01M132 268h.01M140 268h.01M148 268h.01M156 268h.01M164 268h.01M172 268h.01M180 268h.01M188 268h.01M196 268h.01M204 268h.01M212 268h.01M220 268h.01M228 268h.01M236 268h.01M244 268h.01M252 268h.01M260 268h.01M20 276h.01M28 276h.01M36 276h.01M52 276h.01M60 276h.01M68 276h.01M76 276h.01M84 276h.01M92 276h.01M100 276h.01M108 276h.01M116 276h.01M124 276h.01M132 276h.01M140 276h.01M148 276h.01M156 276h.01M164 276h.01M172 276h.01M180 276h.01M188 276h.01M196 276h.01M204 276h.01M212 276h.01M220 276h.01M228 276h.01M236 276h.01M244 276h.01M252 276h.01M260 276h.01M44 284h.01M52 284h.01M60 284h.01M68 284h.01M76 284h.01M84 284h.01M92 284h.01M100 284h.01M108 284h.01M116 284h.01M124 284h.01M132 284h.01M140 284h.01M148 284h.01M156 284h.01M164 284h.01M172 284h.01M180 284h.01M188 284h.01M196 284h.01M204 284h.01M212 284h.01M220 284h.01M228 284h.01M236 284h.01M244 284h.01M252 284h.01M20 292h.01M28 292h.01M36 292h.01M44 292h.01M52 292h.01M60 292h.01M68 292h.01M76 292h.01M92 292h.01M100 292h.01M108 292h.01M116 292h.01M124 292h.01M132 292h.01M140 292h.01M148 292h.01M156 292h.01M164 292h.01M172 292h.01M180 292h.01M188 292h.01M196 292h.01M204 292h.01M212 292h.01M220 292h.01M228 292h.01M236 292h.01M244 292h.01M300 292h.01M308 292h.01M316 292h.01M324 292h.01M348 292h.01M356 292h.01M28 300h.01M36 300h.01M44 300h.01M52 300h.01M60 300h.01M68 300h.01M76 300h.01M92 300h.01M100 300h.01M108 300h.01M116 300h.01M124 300h.01M132 300h.01M140 300h.01M148 300h.01M156 300h.01M164 300h.01M172 300h.01M180 300h.01M188 300h.01M196 300h.01M204 300h.01M212 300h.01M220 300h.01M228 300h.01M236 300h.01M300 300h.01M308 300h.01M316 300h.01M324 300h.01M332 300h.01M340 300h.01M348 300h.01M356 300h.01M364 300h.01M44 308h.01M52 308h.01M60 308h.01M68 308h.01M76 308h.01M92 308h.01M100 308h.01M108 308h.01M116 308h.01M124 308h.01M132 308h.01M140 308h.01M148 308h.01M156 308h.01M164 308h.01M172 308h.01M180 308h.01M188 308h.01M196 308h.01M204 308h.01M212 308h.01M220 308h.01M228 308h.01M236 308h.01M292 308h.01M300 308h.01M308 308h.01M316 308h.01M324 308h.01M332 308h.01M340 308h.01M348 308h.01M356 308h.01M52 316h.01M60 316h.01M92 316h.01M100 316h.01M108 316h.01M116 316h.01M124 316h.01M132 316h.01M140 316h.01M148 316h.01M156 316h.01M164 316h.01M172 316h.01M180 316h.01M188 316h.01M196 316h.01M204 316h.01M212 316h.01M220 316h.01M228 316h.01M236 316h.01M284 316h.01M292 316h.01M300 316h.01M308 316h.01M316 316h.01M324 316h.01M332 316h.01M340 316h.01M348 316h.01M356 316h.01M100 324h.01M108 324h.01M116 324h.01M124 324h.01M132 324h.01M140 324h.01M148 324h.01M156 324h.01M164 324h.01M172 324h.01M180 324h.01M188 324h.01M196 324h.01M204 324h.01M212 324h.01M220 324h.01M228 324h.01M236 324h.01M276 324h.01M284 324h.01M292 324h.01M300 324h.01M308 324h.01M316 324h.01M324 324h.01M332 324h.01M340 324h.01M348 324h.01M356 324h.01M92 332h.01M100 332h.01M108 332h.01M116 332h.01M124 332h.01M132 332h.01M140 332h.01M148 332h.01M156 332h.01M164 332h.01M172 332h.01M180 332h.01M188 332h.01M196 332h.01M204 332h.01M212 332h.01M220 332h.01M228 332h.01M236 332h.01M276 332h.01M284 332h.01M292 332h.01M300 332h.01M308 332h.01M316 332h.01M324 332h.01M332 332h.01M340 332h.01M348 332h.01M92 340h.01M100 340h.01M108 340h.01M116 340h.01M124 340h.01M132 340h.01M140 340h.01M148 340h.01M156 340h.01M164 340h.01M172 340h.01M180 340h.01M188 340h.01M196 340h.01M204 340h.01M212 340h.01M220 340h.01M228 340h.01M236 340h.01M268 340h.01M276 340h.01M284 340h.01M292 340h.01M300 340h.01M308 340h.01M316 340h.01M324 340h.01M332 340h.01M92 348h.01M100 348h.01M108 348h.01M116 348h.01M124 348h.01M132 348h.01M140 348h.01M148 348h.01M156 348h.01M164 348h.01M172 348h.01M180 348h.01M188 348h.01M196 348h.01M204 348h.01M212 348h.01M220 348h.01M228 348h.01M236 348h.01M276 348h.01M284 348h.01M292 348h.01M300 348h.01M308 348h.01M316 348h.01M100 356h.01M108 356h.01M116 356h.01M124 356h.01M132 356h.01M140 356h.01M148 356h.01M156 356h.01M164 356h.01M172 356h.01M180 356h.01M188 356h.01M196 356h.01M204 356h.01M212 356h.01M220 356h.01M228 356h.01M276 356h.01M284 356h.01M292 356h.01M300 356h.01M308 356h.01M100 364h.01M108 364h.01M116 364h.01M124 364h.01M132 364h.01M140 364h.01M148 364h.01M156 364h.01M164 364h.01M172 364h.01M180 364h.01M188 364h.01M196 364h.01M204 364h.01M212 364h.01M220 364h.01M228 364h.01M236 364h.01M268 364h.01M276 364h.01M284 364h.01M292 364h.01M300 364h.01M100 372h.01M108 372h.01M116 372h.01M124 372h.01M132 372h.01M140 372h.01M148 372h.01M156 372h.01M164 372h.01M172 372h.01M180 372h.01M188 372h.01M196 372h.01M204 372h.01M212 372h.01M220 372h.01M228 372h.01M236 372h.01M244 372h.01M260 372h.01M268 372h.01M276 372h.01M284 372h.01M292 372h.01M100 380h.01M108 380h.01M116 380h.01M124 380h.01M132 380h.01M140 380h.01M148 380h.01M156 380h.01M164 380h.01M172 380h.01M180 380h.01M188 380h.01M196 380h.01M204 380h.01M212 380h.01M220 380h.01M228 380h.01M236 380h.01M244 380h.01M252 380h.01M260 380h.01M268 380h.01M276 380h.01M284 380h.01M108 388h.01M116 388h.01M124 388h.01M132 388h.01M140 388h.01M148 388h.01M156 388h.01M164 388h.01M172 388h.01M180 388h.01M188 388h.01M196 388h.01M204 388h.01M212 388h.01M220 388h.01M228 388h.01M236 388h.01M244 388h.01M252 388h.01M260 388h.01M268 388h.01M108 396h.01M116 396h.01M124 396h.01M132 396h.01M140 396h.01M148 396h.01M156 396h.01M164 396h.01M172 396h.01M180 396h.01M188 396h.01M196 396h.01M204 396h.01M212 396h.01M220 396h.01M228 396h.01M236 396h.01M244 396h.01M252 396h.01M260 396h.01M268 396h.01M108 404h.01M116 404h.01M124 404h.01M132 404h.01M140 404h.01M148 404h.01M156 404h.01M164 404h.01M172 404h.01M180 404h.01M188 404h.01M196 404h.01M204 404h.01M212 404h.01M220 404h.01M228 404h.01M236 404h.01M244 404h.01M252 404h.01M108 412h.01M116 412h.01M124 412h.01M132 412h.01M140 412h.01M148 412h.01M156 412h.01M164 412h.01M172 412h.01M180 412h.01M188 412h.01M196 412h.01M204 412h.01M212 412h.01M220 412h.01M228 412h.01M236 412h.01M244 412h.01M116 420h.01M124 420h.01M132 420h.01M140 420h.01M148 420h.01M156 420h.01M164 420h.01M172 420h.01M180 420h.01M188 420h.01M196 420h.01M204 420h.01M212 420h.01M220 420h.01M228 420h.01M116 428h.01M124 428h.01M132 428h.01M140 428h.01M148 428h.01M156 428h.01M164 428h.01M172 428h.01M180 428h.01M188 428h.01M196 428h.01M204 428h.01M212 428h.01M220 428h.01M228 428h.01M124 436h.01M132 436h.01M140 436h.01M148 436h.01M156 436h.01M164 436h.01M172 436h.01M180 436h.01M188 436h.01M196 436h.01M204 436h.01M212 436h.01M220 436h.01M228 436h.01M124 444h.01M132 444h.01M140 444h.01M148 444h.01M156 444h.01M164 444h.01M172 444h.01M180 444h.01M188 444h.01M196 444h.01M204 444h.01M212 444h.01M220 444h.01M228 444h.01M132 452h.01M140 452h.01M148 452h.01M156 452h.01M164 452h.01M172 452h.01M180 452h.01M188 452h.01M196 452h.01M204 452h.01M212 452h.01M220 452h.01M228 452h.01M132 460h.01M140 460h.01M148 460h.01M156 460h.01M164 460h.01M172 460h.01M180 460h.01M188 460h.01M196 460h.01M204 460h.01M212 460h.01M220 460h.01M228 460h.01M132 468h.01M140 468h.01M148 468h.01M156 468h.01M164 468h.01M172 468h.01M180 468h.01M188 468h.01M196 468h.01M204 468h.01M212 468h.01M220 468h.01M228 468h.01M140 476h.01M148 476h.01M156 476h.01M164 476h.01M172 476h.01M180 476h.01M188 476h.01M196 476h.01M204 476h.01M212 476h.01M220 476h.01M228 476h.01M140 484h.01M148 484h.01M156 484h.01M164 484h.01M172 484h.01M180 484h.01M188 484h.01M196 484h.01M204 484h.01M212 484h.01M220 484h.01M148 492h.01M156 492h.01M164 492h.01M172 492h.01M180 492h.01M188 492h.01M196 492h.01M204 492h.01M212 492h.01M220 492h.01M156 500h.01M164 500h.01M172 500h.01M180 500h.01M188 500h.01M196 500h.01M204 500h.01M212 500h.01M220 500h.01M156 508h.01M164 508h.01M172 508h.01M180 508h.01M188 508h.01M196 508h.01M204 508h.01M212 508h.01M220 508h.01M156 516h.01M164 516h.01M172 516h.01M180 516h.01M188 516h.01M196 516h.01M204 516h.01M212 516h.01M220 516h.01M164 524h.01M172 524h.01M180 524h.01M188 524h.01M196 524h.01M204 524h.01M212 524h.01M164 532h.01M172 532h.01M180 532h.01M188 532h.01M196 532h.01M204 532h.01M164 540h.01M172 540h.01M180 540h.01M188 540h.01M196 540h.01M172 548h.01M180 548h.01M188 548h.01M180 556h.01M188 556h.01" stroke="#39d353" stroke-width="5.76" stroke-linecap="round" fill="none"/><path d="M173.0 92.9l5 9h-10z" fill="#e3b341"/><text x="181.0" y="101.9" font-size="13" fill="#e3b341">beas kund</text><circle cx="149.7" cy="281.5" r="3" fill="none" stroke="#58a6ff" stroke-width="1.4"/><text x="157.7" y="285.5" font-size="13" fill="#58a6ff">indore &#183; home</text></svg>