<svg xmlns="http://www.w3.org/2000/svg" viewBox="0 0 936.0 616.0" font-family="JetBrains Mono, ui-monospace, Menlo, monospace" role="img" aria-label="Dot map of South and Southeast Asia; visited countries highlighted: India, Singapore, Malaysia, Thailand, Indonesia, Vietnam"><path d="M4 4h.01M12 4h.01M20 4h.01M28 4h.01M36 4h.01M44 4h.01M52 4h.01M60 4h.01M68 4h.01M76 4h.01M84 4h.01M92 4h.01M100 4h.01M108 4h.01M116 4h.01M124 4h.01M132 4h.01M140 4h.01M148 4h.01M156 4h.01M164 4h.01M172 4h.01M180 4h.01M188 4h.01M196 4h.01M204 4h.01M212 4h.01M220 4h.01M228 4h.01M236 4h.01M244 4h.01M252 4h.01M260 4h.01M268 4h.01M276 4h.01M284 4h.01M292 4h.01M300 4h.01M308 4h.01M316 4h.01M324 4h.01M332 4h.01M340 4h.01M348 4h.01M356 4h.01M364 4h.01M372 4h.01M380 4h.01M388 4h.01M396 4h.01M404 4h.01M412 4h.01M420 4h.01M428 4h.01M436 4h.01M444 4h.01M452 4h.01M460 4h.01M468 4h.01M476 4h.01M484 4h.01M492 4h.01M500 4h.01M508 4h.01M516 4h.01M524 4h.01M532 4h.01M540 4h.01M548 4h.01M556 4h.01M564 4h.01M572 4h.01M580 4h.01M588 4h.01M596 4h.01M604 4h.01M612 4h.01M620 4h.01M628 4h.01M636 4h.01M644 4h.01M652 4h.01M660 4h.01M668 4h.01M676 4h.01M684 4h.01M692 4h.01M700 4h.01M708 4h.01M716 4h.01M724 4h.01M732 4h.01M740 4h.01M748 4h.01M756 4h.01M764 4h.01M772 4h.01M780 4h.01M788 4h.01M796 4h.01M916 4h.01M924 4h.01M4 12h.01M12 12h.01M20 12h.01M28 12h.01M36 12h.01M44 12h.01M52 12h.01M60 12h.01M68 12h.01M76 12h.01M84 12h.01M92 12h.01M100 12h.01M108 12h.01M116 12h.01M124 12h.01M132 12h.01M140 12h.01M148 12h.01M156 12h.01M164 12h.01M172 12h.01M180 12h.01M188 12h.01M196 12h.01M204 12h.01M212 12h.01M220 12h.01M228 12h.01M236 12h.01M244 12h.01M252 12h.01M260 12h.01M268 12h.01M276 12h.01M284 12h.01M292 12h.01M300 12h.01M308 12h.01M316 12h.01M324 12h.01M332 12h.01M340 12h.01M348 12h.01M356 12h.01M364 12h.01M372 12h.01M380 12h.01M388 12h.01M396 12h.01M404 12h.01M412 12h.01M420 12h.01M428 12h.01M436 12h.01M444 12h.01M452 12h.01M460 12h.01M468 12h.01M476 12h.01M484 12h.01M492 12h.01M500 12h.01M508 12h.01M516 12h.01M524 12h.01M532 12h.01M540 12h.01M548 12h.01M556 12h.01M564 12h.01M572 12h.01M580 12h.01M588 12h.01M596 12h.01M604 12h.01M612 12h.01M620 12h.01M628 12h.01M636 12h.01M644 12h.01M652 12h.01M660 12h.01M668 12h.01M676 12h.01M684 12h.01M692 12h.01M700 12h.01M708 12h.01M716 12h.01M724 12h.01M732 12h.01M740 12h.01M748 12h.01M756 12h.01M764 12h.01M772 12h.01M780 12h.01M788 12h.01M796 12h.01M916 12h.01M924 12h.01M4 20h.01M12 20h.01M20 20h.01M28 20h.01M36 20h.01M44 20h.01M52 20h.01M60 20h.01M68 20h.01M76 20h.01M84 20h.01M92 20h.01M100 20h.01M108 20h.01M116 20h.01M124 20h.01M132 20h.01M140 20h.01M148 20h.01M156 20h.01M164 20h.01M172 20h.01M180 20h.01M188 20h.01M196 20h.01M204 20h.01M212 20h.01M220 20h.01M228 20h.01M236 20h.01M244 20h.01M252 20h.01M260 20h.01M268 20h.01M276 20h.01M284 20h.01M292 20h.01M300 20h.01M308 20h.01M316 20h.01M324 20h.01M332 20h.01M340 20h.01M348 20h.01M356 20h.01M364 20h.01M372 20h.01M380 20h.01M388 20h.01M396 20h.01M404 20h.01M412 20h.01M420 20h.01M428 20h.01M436 20h.01M444 20h.01M452 20h.01M460 20h.01M468 20h.01M476 20h.01M484 20h.01M492 20h.01M500 20h.01M508 20h.01M516 20h.01M524 20h.01M532 20h.01M540 20h.01M548 20h.01M556 20h.01M564 20h.01M572 20h.01M580 20h.01M588 20h.01M596 20h.01M604 20h.01M612 20h.01M620 20h.01M628 20h.01M636 20h.01M644 20h.01M652 20h.01M660 20h.01M668 20h.01M676 20h.01M684 20h.01M716 20h.01M724 20h.01M732 20h.01M740 20h.01M748 20h.01M756 20h.01M764 20h.01M772 20h.01M780 20h.01M916 20h.01M924 20h.01M932 20h.01M4 28h.01M12 28h.01M20 28h.01M28 28h.01M36 28h.01M44 28h.01M52 28h.01M60 28h.01M68 28h.01M76 28h.01M84 28h.01M92 28h.01M100 28h.01M108 28h.01M116 28h.01M124 28h.01M132 28h.01M140 28h.01M148 28h.01M156 28h.01M164 28h.01M172 28h.01M180 28h.01M188 28h.01M196 28h.01M204 28h.01M212 28h.01M220 28h.01M228 28h.01M236 28h.01M244 28h.01M252 28h.01M260 28h.01M268 28h.01M276 28h.01M284 28h.01M292 28h.01M300 28h.01M308 28h.01M316 28h.01M324 28h.01M332 28h.01M340 28h.01M348 28h.01M356 28h.01M364 28h.01M372 28h.01M380 28h.01M388 28h.01M396 28h.01M404 28h.01M412 28h.01M420 28h.01M428 28h.01M436 28h.01M444 28h.01M452 28h.01M460 28h.01M468 28h.01M476 28h.01M484 28h.01M492 28h.01M500 28h.01M508 28h.01M516 28h.01M524 28h.01M532 28h.01M540 28h.01M548 28h.01M556 28h.01M564 28h.01M572 28h.01M580 28h.01M588 28h.01M596 28h.01M604 28h.01M612 28h.01M620 28h.01M628 28h.01M636 28h.01M644 28h.01M652 28h.01M660 28h.01M668 28h.01M676 28h.01M708 28h.01M716 28h.01M748 28h.01M756 28h.01M764 28h.01M916 28h.01M924 28h.01M932 28h.01M4 36h.01M12 36h.01M20 36h.01M28 36h.01M36 36h.01M44 36h.01M52 36h.01M60 36h.01M68 36h.01M76 36h.01M84 36h.01M92 36h.01M100 36h.01M108 36h.01M116 36h.01M124 36h.01M132 36h.01M140 36h.01M148 36h.01M156 36h.01M164 36h.01M172 36h.01M180 36h.01M188 36h.01M196 36h.01M204 36h.01M212 36h.01M220 36h.01M228 36h.01M236 36h.01M244 36h.01M252 36h.01M260 36h.01M268 36h.01M276 36h.01M284 36h.01M292 36h.01M300 36h.01M308 36h.01M316 36h.01M324 36h.01M332 36h.01M340 36h.01M348 36h.01M356 36h.01M364 36h.01M372 36h.01M380 36h.01M388 36h.01M396 36h.01M404 36h.01M412 36h.01M420 36h.01M428 36h.01M436 36h.01M444 36h.01M452 36h.01M460 36h.01M468 36h.01M476 36h.01M484 36h.01M492 36h.01M500 36h.01M508 36h.01M516 36h.01M524 36h.01M532 36h.01M540 36h.01M548 36h.01M556 36h.01M564 36h.01M572 36h.01M580 36h.01M588 36h.01M596 36h.01M604 36h.01M612 36h.01M620 36h.01M628 36h.01M636 36h.01M644 36h.01M652 36h.01M748 36h.01M756 36h.01M764 36h.01M772 36h.01M916 36h.01M924 36h.01M932 36h.01M4 44h.01M12 44h.01M20 44h.01M28 44h.01M36 44h.01M44 44h.01M52 44h.01M60 44h.01M68 44h.01M76 44h.01M84 44h.01M92 44h.01M100 44h.01M108 44h.01M116 44h.01M124 44h.01M132 44h.01M140 44h.01M148 44h.01M156 44h.01M164 44h.01M172 44h.01M180 44h.01M188 44h.01M196 44h.01M204 44h.01M212 44h.01M220 44h.01M228 44h.01M236 44h.01M244 44h.01M252 44h.01M260 44h.01M268 44h.01M276 44h.01M284 44h.01M292 44h.01M300 44h.01M308 44h.01M316 44h.01M324 44h.01M332 44h.01M340 44h.01M348 44h.01M356 44h.01M364 44h.01M372 44h.01M380 44h.01M388 44h.01M396 44h.01M404 44h.01M412 44h.01M420 44h.01M428 44h.01M436 44h.01M444 44h.01M452 44h.01M460 44h.01M468 44h.01M476 44h.01M484 44h.01M492 44h.01M500 44h.01M508 44h.01M516 44h.01M524 44h.01M532 44h.01M540 44h.01M548 44h.01M556 44h.01M564 44h.01M572 44h.01M580 44h.01M588 44h.01M596 44h.01M604 44h.01M612 44h.01M620 44h.01M628 44h.01M636 44h.01M644 44h.01M652 44h.01M660 44h.01M740 44h.01M748 44h.01M756 44h.01M764 44h.01M772 44h.01M780 44h.01M908 44h.01M916 44h.01M924 44h.01M4 52h.01M12 52h.01M20 52h.01M28 52h.01M36 52h.01M44 52h.01M52 52h.01M60 52h.01M68 52h.01M76 52h.01M84 52h.01M92 52h.01M100 52h.01M108 52h.01M116 52h.01M124 52h.01M132 52h.01M140 52h.01M148 52h.01M156 52h.01M164 52h.01M172 52h.01M180 52h.01M188 52h.01M196 52h.01M204 52h.01M212 52h.01M220 52h.01M228 52h.01M236 52h.01M244 52h.01M252 52h.01M260 52h.01M268 52h.01M276 52h.01M284 52h.01M292 52h.01M300 52h.01M308 52h.01M316 52h.01M324 52h.01M332 52h.01M340 52h.01M348 52h.01M356 52h.01M364 52h.01M372 52h.01M380 52h.01M388 52h.01M396 52h.01M404 52h.01M412 52h.01M420 52h.01M428 52h.01M436 52h.01M444 52h.01M452 52h.01M460 52h.01M468 52h.01M476 52h.01M484 52h.01M492 52h.01M500 52h.01M508 52h.01M516 52h.01M524 52h.01M532 52h.01M540 52h.01M548 52h.01M556 52h.01M564 52h.01M572 52h.01M580 52h.01M588 52h.01M596 52h.01M604 52h.01M612 52h.01M620 52h.01M628 52h.01M636 52h.01M644 52h.01M652 52h.01M660 52h.01M668 52h.01M692 52h.01M700 52h.01M708 52h.01M764 52h.01M772 52h.01M780 52h.01M788 52h.01M900 52h.01M908 52h.01M916 52h.01M924 52h.01M4 60h.01M12 60h.01M20 60h.01M28 60h.01M36 60h.01M44 60h.01M52 60h.01M60 60h.01M68 60h.01M76 60h.01M84 60h.01M92 60h.01M100 60h.01M108 60h.01M116 60h.01M124 60h.01M132 60h.01M140 60h.01M148 60h.01M156 60h.01M180 60h.01M188 60h.01M196 60h.01M204 60h.01M212 60h.01M220 60h.01M228 60h.01M236 60h.01M244 60h.01M252 60h.01M260 60h.01M268 60h.01M276 60h.01M284 60h.01M292 60h.01M300 60h.01M308 60h.01M316 60h.01M324 60h.01M332 60h.01M340 60h.01M348 60h.01M356 60h.01M364 60h.01M372 60h.01M380 60h.01M388 60h.01M396 60h.01M404 60h.01M412 60h.01M420 60h.01M428 60h.01M436 60h.01M444 60h.01M452 60h.01M460 60h.01M468 60h.01M476 60h.01M484 60h.01M492 60h.01M500 60h.01M508 60h.01M516 60h.01M524 60h.01M532 60h.01M540 60h.01M548 60h.01M556 60h.01M564 60h.01M572 60h.01M580 60h.01M588 60h.01M596 60h.01M604 60h.01M612 60h.01M620 60h.01M628 60h.01M636 60h.01M644 60h.01M652 60h.01M660 60h.01M668 60h.01M676 60h.01M684 60h.01M692 60h.01M700 60h.01M764 60h.01M772 60h.01M780 60h.01M788 60h.01M876 60h.01M884 60h.01M892 60h.01M900 60h.01M908 60h.01M916 60h.01M4 68h.01M12 68h.01M20 68h.01M28 68h.01M36 68h.01M44 68h.01M52 68h.01M60 68h.01M68 68h.01M76 68h.01M84 68h.01M92 68h.01M100 68h.01M108 68h.01M116 68h.01M124 68h.01M132 68h.01M140 68h.01M196 68h.01M204 68h.01M212 68h.01M220 68h.01M228 68h.01M236 68h.01M244 68h.01M252 68h.01M260 68h.01M268 68h.01M276 68h.01M284 68h.01M292 68h.01M300 68h.01M308 68h.01M316 68h.01M324 68h.01M332 68h.01M340 68h.01M348 68h.01M356 68h.01M364 68h.01M372 68h.01M380 68h.01M388 68h.01M396 68h.01M404 68h.01M412 68h.01M420 68h.01M428 68h.01M436 68h.01M444 68h.01M452 68h.01M460 68h.01M468 68h.01M476 68h.01M484 68h.01M492 68h.01M500 68h.01M508 68h.01M516 68h.01M524 68h.01M532 68h.01M540 68h.01M548 68h.01M556 68h.01M564 68h.01M572 68h.01M580 68h.01M588 68h.01M596 68h.01M604 68h.01M612 68h.01M620 68h.01M628 68h.01M636 68h.01M644 68h.01M652 68h.01M660 68h.01M668 68h.01M676 68h.01M684 68h.01M764 68h.01M772 68h.01M780 68h.01M788 68h.01M876 68h.01M884 68h.01M892 68h.01M900 68h.01M908 68h.01M916 68h.01M4 76h.01M12 76h.01M20 76h.01M28 76h.01M36 76h.01M44 76h.01M52 76h.01M60 76h.01M68 76h.01M76 76h.01M84 76h.01M92 76h.01M100 76h.01M108 76h.01M116 76h.01M124 76h.01M132 76h.01M140 76h.01M148 76h.01M156 76h.01M236 76h.01M244 76h.01M252 76h.01M260 76h.01M268 76h.01M276 76h.01M284 76h.01M292 76h.01M300 76h.01M308 76h.01M316 76h.01M324 76h.01M332 76h.01M340 76h.01M348 76h.01M356 76h.01M364 76h.01M372 76h.01M380 76h.01M388 76h.01M396 76h.01M404 76h.01M412 76h.01M420 76h.01M428 76h.01M436 76h.01M444 76h.01M452 76h.01M460 76h.01M468 76h.01M476 76h.01M484 76h.01M492 76h.01M500 76h.01M508 76h.01M516 76h.01M524 76h.01M532 76h.01M540 76h.01M548 76h.01M556 76h.01M564 76h.01M572 76h.01M580 76h.01M588 76h.01M596 76h.01M604 76h.01M612 76h.01M620 76h.01M628 76h.01M636 76h.01M644 76h.01M652 76h.01M660 76h.01M668 76h.01M676 76h.01M764 76h.01M772 76h.01M780 76h.01M788 76h.01M836 76h.01M844 76h.01M852 76h.01M860 76h.01M868 76h.01M876 76h.01M884 76h.01M892 76h.01M900 76h.01M908 76h.01M916 76h.01M4 84h.01M12 84h.01M20 84h.01M28 84h.01M36 84h.01M44 84h.01M52 84h.01M60 84h.01M68 84h.01M76 84h.01M84 84h.01M92 84h.01M100 84h.01M108 84h.01M116 84h.01M124 84h.01M132 84h.01M140 84h.01M148 84h.01M156 84h.01M228 84h.01M236 84h.01M244 84h.01M252 84h.01M260 84h.01M268 84h.01M276 84h.01M284 84h.01M292 84h.01M300 84h.01M308 84h.01M316 84h.01M324 84h.01M332 84h.01M340 84h.01M348 84h.01M356 84h.01M364 84h.01M372 84h.01M380 84h.01M388 84h.01M396 84h.01M404 84h.01M412 84h.01M420 84h.01M428 84h.01M436 84h.01M444 84h.01M452 84h.01M460 84h.01M468 84h.01M476 84h.01M484 84h.01M492 84h.01M500 84h.01M508 84h.01M516 84h.01M524 84h.01M532 84h.01M540 84h.01M548 84h.01M556 84h.01M564 84h.01M572 84h.01M580 84h.01M588 84h.01M596 84h.01M604 84h.01M612 84h.01M620 84h.01M628 84h.01M636 84h.01M644 84h.01M652 84h.01M660 84h.01M668 84h.01M676 84h.01M764 84h.01M772 84h.01M820 84h.01M828 84h.01M836 84h.01M844 84h.01M852 84h.01M860 84h.01M868 84h.01M876 84h.01M884 84h.01M892 84h.01M4 92h.01M12 92h.01M20 92h.01M28 92h.01M36 92h.01M44 92h.01M52 92h.01M60 92h.01M68 92h.01M76 92h.01M84 92h.01M92 92h.01M100 92h.01M108 92h.01M116 92h.01M124 92h.01M132 92h.01M140 92h.01M148 92h.01M220 92h.01M228 92h.01M236 92h.01M244 92h.01M252 92h.01M260 92h.01M268 92h.01M276 92h.01M284 92h.01M292 92h.01M300 92h.01M308 92h.01M316 92h.01M324 92h.01M332 92h.01M340 92h.01M348 92h.01M356 92h.01M364 92h.01M372 92h.01M380 92h.01M388 92h.01M396 92h.01M404 92h.01M412 92h.01M420 92h.01M428 92h.01M436 92h.01M444 92h.01M452 92h.01M460 92h.01M468 92h.01M476 92h.01M484 92h.01M492 92h.01M500 92h.01M508 92h.01M516 92h.01M524 92h.01M532 92h.01M540 92h.01M548 92h.01M556 92h.01M564 92h.01M572 92h.01M580 92h.01M588 92h.01M596 92h.01M604 92h.01M612 92h.01M620 92h.01M628 92h.01M636 92h.01M644 92h.01M652 92h.01M660 92h.01M668 92h.01M676 92h.01M684 92h.01M812 92h.01M820 92h.01M836 92h.01M844 92h.01M852 92h.01M860 92h.01M868 92h.01M4 100h.01M12 100h.01M20 100h.01M28 100h.01M36 100h.01M44 100h.01M52 100h.01M60 100h.01M68 100h.01M76 100h.01M84 100h.01M92 100h.01M100 100h.01M108 100h.01M116 100h.01M124 100h.01M132 100h.01M140 100h.01M148 100h.01M228 100h.01M236 100h.01M244 100h.01M252 100h.01M260 100h.01M268 100h.01M276 100h.01M284 100h.01M292 100h.01M300 100h.01M308 100h.01M316 100h.01M324 100h.01M332 100h.01M340 100h.01M348 100h.01M356 100h.01M364 100h.01M372 100h.01M380 100h.01M388 100h.01M396 100h.01M404 100h.01M412 100h.01M420 100h.01M428 100h.01M436 100h.01M444 100h.01M452 100h.01M460 100h.01M468 100h.01M476 100h.01M484 100h.01M492 100h.01M500 100h.01M508 100h.01M516 100h.01M524 100h.01M532 100h.01M540 100h.01M548 100h.01M556 100h.01M564 100h.01M572 100h.01M580 100h.01M588 100h.01M596 100h.01M604 100h.01M612 100h.01M620 100h.01M628 100h.01M636 100h.01M644 100h.01M652 100h.01M660 100h.01M668 100h.01M676 100h.01M684 100h.01M692 100h.01M796 100h.01M804 100h.01M812 100h.01M820 100h.01M828 100h.01M836 100h.01M4 108h.01M12 108h.01M20 108h.01M28 108h.01M36 108h.01M44 108h.01M52 108h.01M60 108h.01M68 108h.01M76 108h.01M84 108h.01M92 108h.01M100 108h.01M108 108h.01M116 108h.01M124 108h.01M132 108h.01M140 108h.01M148 108h.01M156 108h.01M164 108h.01M212 108h.01M228 108h.01M236 108h.01M244 108h.01M252 108h.01M260 108h.01M268 108h.01M276 108h.01M284 108h.01M292 108h.01M300 108h.01M308 108h.01M316 108h.01M324 108h.01M332 108h.01M340 108h.01M348 108h.01M356 108h.01M364 108h.01M372 108h.01M380 108h.01M388 108h.01M396 108h.01M404 108h.01M412 108h.01M420 108h.01M428 108h.01M436 108h.01M444 108h.01M452 108h.01M460 108h.01M468 108h.01M476 108h.01M484 108h.01M492 108h.01M500 108h.01M508 108h.01M516 108h.01M524 108h.01M532 108h.01M540 108h.01M548 108h.01M556 108h.01M564 108h.01M572 108h.01M580 108h.01M588 108h.01M596 108h.01M604 108h.01M612 108h.01M620 108h.01M628 108h.01M636 108h.01M644 108h.01M652 108h.01M660 108h.01M668 108h.01M676 108h.01M684 108h.01M692 108h.01M804 108h.01M812 108h.01M820 108h.01M4 116h.01M12 116h.01M20 116h.01M28 116h.01M36 116h.01M44 116h.01M52 116h.01M60 116h.01M68 116h.01M76 116h.01M84 116h.01M92 116h.01M100 116h.01M108 116h.01M116 116h.01M124 116h.01M132 116h.01M140 116h.01M148 116h.01M156 116h.01M164 116h.01M220 116h.01M228 116h.01M236 116h.01M244 116h.01M252 116h.01M260 116h.01M268 116h.01M276 116h.01M284 116h.01M292 116h.01M300 116h.01M308 116h.01M316 116h.01M324 116h.01M332 116h.01M340 116h.01M348 116h.01M356 116h.01M364 116h.01M372 116h.01M380 116h.01M388 116h.01M396 116h.01M404 116h.01M412 116h.01M420 116h.01M428 116h.01M436 116h.01M444 116h.01M452 116h.01M460 116h.01M468 116h.01M476 116h.01M484 116h.01M492 116h.01M500 116h.01M508 116h.01M516 116h.01M524 116h.01M532 116h.01M540 116h.01M548 116h.01M556 116h.01M564 116h.01M572 116h.01M580 116h.01M588 116h.01M596 116h.01M604 116h.01M612 116h.01M620 116h.01M628 116h.01M636 116h.01M644 116h.01M652 116h.01M660 116h.01M668 116h.01M676 116h.01M684 116h.01M692 116h.01M700 116h.01M804 116h.01M812 116h.01M4 124h.01M12 124h.01M20 124h.01M28 124h.01M36 124h.01M44 124h.01M52 124h.01M60 124h.01M68 124h.01M76 124h.01M84 124h.01M92 124h.01M100 124h.01M108 124h.01M116 124h.01M124 124h.01M132 124h.01M140 124h.01M148 124h.01M156 124h.01M164 124h.01M228 124h.01M236 124h.01M244 124h.01M252 124h.01M260 124h.01M268 124h.01M276 124h.01M284 124h.01M292 124h.01M300 124h.01M308 124h.01M316 124h.01M324 124h.01M332 124h.01M340 124h.01M348 124h.01M356 124h.01M364 124h.01M372 124h.01M380 124h.01M388 124h.01M396 124h.01M404 124h.01M412 124h.01M420 124h.01M428 124h.01M436 124h.01M444 124h.01M452 124h.01M460 124h.01M468 124h.01M476 124h.01M484 124h.01M492 124h.01M500 124h.01M508 124h.01M516 124h.01M524 124h.01M532 124h.01M540 124h.01M548 124h.01M556 124h.01M564 124h.01M572 124h.01M580 124h.01M588 124h.01M596 124h.01M604 124h.01M612 124h.01M620 124h.01M628 124h.01M636 124h.01M644 124h.01M652 124h.01M660 124h.01M668 124h.01M676 124h.01M684 124h.01M692 124h.01M700 124h.01M4 132h.01M12 132h.01M20 132h.01M28 132h.01M36 132h.01M44 132h.01M52 132h.01M60 132h.01M68 132h.01M76 132h.01M84 132h.01M92 132h.01M100 132h.01M108 132h.01M116 132h.01M124 132h.01M132 132h.01M140 132h.01M148 132h.01M156 132h.01M236 132h.01M244 132h.01M252 132h.01M260 132h.01M268 132h.01M276 132h.01M284 132h.01M292 132h.01M300 132h.01M308 132h.01M316 132h.01M324 132h.01M332 132h.01M340 132h.01M348 132h.01M356 132h.01M364 132h.01M372 132h.01M380 132h.01M388 132h.01M396 132h.01M404 132h.01M412 132h.01M420 132h.01M428 132h.01M436 132h.01M444 132h.01M452 132h.01M460 132h.01M468 132h.01M476 132h.01M484 132h.01M492 132h.01M500 132h.01M508 132h.01M516 132h.01M524 132h.01M532 132h.01M540 132h.01M548 132h.01M556 132h.01M564 132h.01M572 132h.01M580 132h.01M588 132h.01M596 132h.01M604 132h.01M612 132h.01M620 132h.01M628 132h.01M636 132h.01M644 132h.01M652 132h.01M660 132h.01M668 132h.01M676 132h.01M684 132h.01M692 132h.01M700 132h.01M4 140h.01M12 140h.01M20 140h.01M28 140h.01M36 140h.01M44 140h.01M52 140h.01M60 140h.01M68 140h.01M76 140h.01M84 140h.01M92 140h.01M100 140h.01M108 140h.01M116 140h.01M124 140h.01M132 140h.01M140 140h.01M148 140h.01M236 140h.01M244 140h.01M252 140h.01M260 140h.01M268 140h.01M276 140h.01M284 140h.01M292 140h.01M300 140h.01M308 140h.01M316 140h.01M324 140h.01M332 140h.01M340 140h.01M348 140h.01M356 140h.01M364 140h.01M372 140h.01M380 140h.01M388 140h.01M396 140h.01M404 140h.01M412 140h.01M420 140h.01M428 140h.01M436 140h.01M444 140h.01M452 140h.01M460 140h.01M468 140h.01M476 140h.01M484 140h.01M492 140h.01M500 140h.01M508 140h.01M516 140h.01M524 140h.01M532 140h.01M540 140h.01M548 140h.01M556 140h.01M564 140h.01M572 140h.01M580 140h.01M588 140h.01M596 140h.01M604 140h.01M612 140h.01M620 140h.01M628 140h.01M636 140h.01M644 140h.01M652 140h.01M660 140h.01M668 140h.01M676 140h.01M684 140h.01M692 140h.01M700 140h.01M708 140h.01M4 148h.01M12 148h.01M20 148h.01M28 148h.01M36 148h.01M44 148h.01M52 148h.01M60 148h.01M68 148h.01M76 148h.01M84 148h.01M92 148h.01M100 148h.01M108 148h.01M116 148h.01M124 148h.01M132 148h.01M140 148h.01M236 148h.01M244 148h.01M252 148h.01M260 148h.01M268 148h.01M276 148h.01M284 148h.01M292 148h.01M300 148h.01M308 148h.01M316 148h.01M324 148h.01M332 148h.01M340 148h.01M348 148h.01M356 148h.01M364 148h.01M372 148h.01M380 148h.01M388 148h.01M404 148h.01M420 148h.01M428 148h.01M436 148h.01M444 148h.01M452 148h.01M460 148h.01M468 148h.01M476 148h.01M484 148h.01M492 148h.01M500 148h.01M508 148h.01M516 148h.01M524 148h.01M532 148h.01M540 148h.01M548 148h.01M556 148h.01M564 148h.01M572 148h.01M580 148h.01M588 148h.01M596 148h.01M604 148h.01M612 148h.01M620 148h.01M628 148h.01M636 148h.01M644 148h.01M652 148h.01M660 148h.01M668 148h.01M676 148h.01M684 148h.01M692 148h.01M700 148h.01M4 156h.01M12 156h.01M20 156h.01M28 156h.01M36 156h.01M44 156h.01M52 156h.01M60 156h.01M68 156h.01M76 156h.01M84 156h.01M92 156h.01M100 156h.01M108 156h.01M116 156h.01M124 156h.01M132 156h.01M244 156h.01M252 156h.01M260 156h.01M268 156h.01M276 156h.01M284 156h.01M292 156h.01M300 156h.01M308 156h.01M316 156h.01M324 156h.01M332 156h.01M340 156h.01M348 156h.01M356 156h.01M364 156h.01M372 156h.01M428 156h.01M436 156h.01M444 156h.01M452 156h.01M460 156h.01M468 156h.01M476 156h.01M484 156h.01M492 156h.01M500 156h.01M508 156h.01M516 156h.01M524 156h.01M532 156h.01M540 156h.01M548 156h.01M556 156h.01M564 156h.01M572 156h.01M580 156h.01M588 156h.01M596 156h.01M604 156h.01M612 156h.01M620 156h.01M628 156h.01M636 156h.01M644 156h.01M652 156h.01M660 156h.01M668 156h.01M676 156h.01M684 156h.01M692 156h.01M700 156h.01M4 164h.01M12 164h.01M20 164h.01M28 164h.01M36 164h.01M44 164h.01M52 164h.01M60 164h.01M68 164h.01M76 164h.01M84 164h.01M92 164h.01M100 164h.01M108 164h.01M260 164h.01M268 164h.01M276 164h.01M284 164h.01M292 164h.01M300 164h.01M308 164h.01M316 164h.01M332 164h.01M340 164h.01M348 164h.01M356 164h.01M428 164h.01M436 164h.01M444 164h.01M452 164h.01M460 164h.01M468 164h.01M476 164h.01M484 164h.01M492 164h.01M500 164h.01M508 164h.01M516 164h.01M524 164h.01M532 164h.01M540 164h.01M548 164h.01M556 164h.01M564 164h.01M572 164h.01M580 164h.01M588 164h.01M596 164h.01M604 164h.01M612 164h.01M620 164h.01M628 164h.01M636 164h.01M644 164h.01M652 164h.01M660 164h.01M668 164h.01M676 164h.01M684 164h.01M692 164h.01M4 172h.01M12 172h.01M20 172h.01M28 172h.01M36 172h.01M44 172h.01M52 172h.01M60 172h.01M68 172h.01M76 172h.01M84 172h.01M92 172h.01M100 172h.01M108 172h.01M292 172h.01M300 172h.01M308 172h.01M316 172h.01M340 172h.01M348 172h.01M356 172h.01M364 172h.01M412 172h.01M420 172h.01M428 172h.01M436 172h.01M444 172h.01M452 172h.01M460 172h.01M468 172h.01M476 172h.01M484 172h.01M492 172h.01M500 172h.01M508 172h.01M516 172h.01M524 172h.01M532 172h.01M540 172h.01M548 172h.01M556 172h.01M564 172h.01M572 172h.01M580 172h.01M588 172h.01M596 172h.01M604 172h.01M612 172h.01M620 172h.01M628 172h.01M636 172h.01M644 172h.01M652 172h.01M660 172h.01M668 172h.01M676 172h.01M684 172h.01M4 180h.01M12 180h.01M20 180h.01M28 180h.01M36 180h.01M44 180h.01M52 180h.01M60 180h.01M68 180h.01M76 180h.01M84 180h.01M92 180h.01M100 180h.01M108 180h.01M116 180h.01M404 180h.01M412 180h.01M420 180h.01M428 180h.01M436 180h.01M444 180h.01M452 180h.01M460 180h.01M468 180h.01M476 180h.01M484 180h.01M492 180h.01M500 180h.01M508 180h.01M516 180h.01M524 180h.01M532 180h.01M540 180h.01M548 180h.01M556 180h.01M564 180h.01M572 180h.01M580 180h.01M588 180h.01M596 180h.01M604 180h.01M612 180h.01M620 180h.01M628 180h.01M636 180h.01M644 180h.01M652 180h.01M660 180h.01M668 180h.01M676 180h.01M684 180h.01M4 188h.01M12 188h.01M20 188h.01M28 188h.01M36 188h.01M44 188h.01M52 188h.01M60 188h.01M68 188h.01M76 188h.01M84 188h.01M92 188h.01M100 188h.01M108 188h.01M116 188h.01M332 188h.01M340 188h.01M404 188h.01M412 188h.01M420 188h.01M428 188h.01M436 188h.01M444 188h.01M452 188h.01M460 188h.01M468 188h.01M476 188h.01M484 188h.01M492 188h.01M500 188h.01M508 188h.01M516 188h.01M524 188h.01M532 188h.01M540 188h.01M548 188h.01M556 188h.01M564 188h.01M572 188h.01M580 188h.01M588 188h.01M596 188h.01M604 188h.01M612 188h.01M620 188h.01M628 188h.01M636 188h.01M644 188h.01M652 188h.01M660 188h.01M668 188h.01M676 188h.01M84 196h.01M92 196h.01M100 196h.01M108 196h.01M116 196h.01M124 196h.01M324 196h.01M332 196h.01M340 196h.01M348 196h.01M356 196h.01M364 196h.01M396 196h.01M404 196h.01M412 196h.01M420 196h.01M428 196h.01M436 196h.01M444 196h.01M452 196h.01M460 196h.01M468 196h.01M476 196h.01M484 196h.01M492 196h.01M500 196h.01M508 196h.01M516 196h.01M524 196h.01M532 196h.01M540 196h.01M548 196h.01M556 196h.01M564 196h.01M572 196h.01M580 196h.01M588 196h.01M596 196h.01M604 196h.01M612 196h.01M620 196h.01M628 196h.01M636 196h.01M644 196h.01M652 196h.01M660 196h.01M668 196h.01M700 196h.01M92 204h.01M332 204h.01M340 204h.01M348 204h.01M356 204h.01M396 204h.01M404 204h.01M412 204h.01M420 204h.01M428 204h.01M436 204h.01M444 204h.01M452 204h.01M460 204h.01M468 204h.01M476 204h.01M484 204h.01M492 204h.01M500 204h.01M508 204h.01M516 204h.01M524 204h.01M532 204h.01M540 204h.01M548 204h.01M556 204h.01M564 204h.01M572 204h.01M580 204h.01M588 204h.01M596 204h.01M604 204h.01M612 204h.01M620 204h.01M628 204h.01M636 204h.01M644 204h.01M652 204h.01M660 204h.01M692 204h.01M700 204h.01M332 212h.01M340 212h.01M348 212h.01M356 212h.01M364 212h.01M388 212h.01M396 212h.01M404 212h.01M412 212h.01M420 212h.01M428 212h.01M436 212h.01M444 212h.01M452 212h.01M460 212h.01M468 212h.01M476 212h.01M484 212h.01M492 212h.01M500 212h.01M508 212h.01M516 212h.01M524 212h.01M532 212h.01M540 212h.01M548 212h.01M556 212h.01M564 212h.01M572 212h.01M580 212h.01M588 212h.01M596 212h.01M604 212h.01M612 212h.01M620 212h.01M628 212h.01M636 212h.01M644 212h.01M692 212h.01M700 212h.01M332 220h.01M340 220h.01M348 220h.01M364 220h.01M380 220h.01M388 220h.01M396 220h.01M404 220h.01M412 220h.01M420 220h.01M428 220h.01M436 220h.01M444 220h.01M452 220h.01M460 220h.01M468 220h.01M476 220h.01M484 220h.01M492 220h.01M500 220h.01M540 220h.01M548 220h.01M556 220h.01M564 220h.01M572 220h.01M580 220h.01M588 220h.01M596 220h.01M604 220h.01M612 220h.01M620 220h.01M628 220h.01M692 220h.01M340 228h.01M372 228h.01M380 228h.01M388 228h.01M396 228h.01M404 228h.01M412 228h.01M420 228h.01M428 228h.01M436 228h.01M444 228h.01M452 228h.01M460 228h.01M468 228h.01M476 228h.01M484 228h.01M540 228h.01M548 228h.01M556 228h.01M564 228h.01M572 228h.01M580 228h.01M588 228h.01M596 228h.01M604 228h.01M372 236h.01M380 236h.01M388 236h.01M396 236h.01M404 236h.01M412 236h.01M420 236h.01M428 236h.01M436 236h.01M444 236h.01M452 236h.01M460 236h.01M468 236h.01M476 236h.01M484 236h.01M572 236h.01M580 236h.01M372 244h.01M380 244h.01M388 244h.01M396 244h.01M404 244h.01M412 244h.01M420 244h.01M428 244h.01M436 244h.01M444 244h.01M452 244h.01M460 244h.01M468 244h.01M476 244h.01M484 244h.01M492 244h.01M500 244h.01M508 244h.01M572 244h.01M380 252h.01M388 252h.01M396 252h.01M404 252h.01M412 252h.01M420 252h.01M428 252h.01M436 252h.01M444 252h.01M468 252h.01M476 252h.01M484 252h.01M492 252h.01M500 252h.01M508 252h.01M572 252h.01M580 252h.01M388 260h.01M396 260h.01M404 260h.01M412 260h.01M420 260h.01M428 260h.01M476 260h.01M484 260h.01M492 260h.01M500 260h.01M556 260h.01M564 260h.01M572 260h.01M396 268h.01M404 268h.01M412 268h.01M420 268h.01M428 268h.01M476 268h.01M484 268h.01M492 268h.01M500 268h.01M508 268h.01M516 268h.01M564 268h.01M572 268h.01M396 276h.01M404 276h.01M412 276h.01M420 276h.01M428 276h.01M476 276h.01M508 276h.01M516 276h.01M692 276h.01M700 276h.01M708 276h.01M396 284h.01M404 284h.01M412 284h.01M420 284h.01M428 284h.01M436 284h.01M516 284h.01M524 284h.01M692 284h.01M700 284h.01M708 284h.01M396 292h.01M404 292h.01M412 292h.01M428 292h.01M436 292h.01M516 292h.01M524 292h.01M532 292h.01M692 292h.01M700 292h.01M708 292h.01M404 300h.01M436 300h.01M524 300h.01M532 300h.01M540 300h.01M692 300h.01M700 300h.01M436 308h.01M524 308h.01M532 308h.01M540 308h.01M692 308h.01M700 308h.01M436 316h.01M508 316h.01M524 316h.01M532 316h.01M540 316h.01M700 316h.01M436 324h.01M444 324h.01M492 324h.01M500 324h.01M508 324h.01M516 324h.01M524 324h.01M532 324h.01M540 324h.01M716 324h.01M724 324h.01M444 332h.01M492 332h.01M500 332h.01M508 332h.01M516 332h.01M524 332h.01M532 332h.01M540 332h.01M700 332h.01M732 332h.01M444 340h.01M492 340h.01M500 340h.01M508 340h.01M516 340h.01M524 340h.01M532 340h.01M540 340h.01M700 340h.01M740 340h.01M444 348h.01M492 348h.01M500 348h.01M508 348h.01M516 348h.01M716 348h.01M748 348h.01M444 356h.01M500 356h.01M508 356h.01M716 356h.01M724 356h.01M740 356h.01M676 364h.01M724 364h.01M668 372h.01M716 372h.01M724 372h.01M748 372h.01M228 380h.01M236 380h.01M740 380h.01M748 380h.01M756 380h.01M228 388h.01M236 388h.01M244 388h.01M716 388h.01M724 388h.01M732 388h.01M740 388h.01M748 388h.01M756 388h.01M228 396h.01M236 396h.01M244 396h.01M716 396h.01M740 396h.01M748 396h.01M756 396h.01M228 404h.01M236 404h.01M244 404h.01M732 404h.01M740 404h.01M756 404h.01M740 412h.01M748 412h.01M620 428h.01M628 428h.01M932 516h.01M932 524h.01M932 532h.01M932 540h.01M932 548h.01M932 556h.01M932 564h.01M932 572h.01M748 580h.01M756 580h.01M932 580h.01M828 612h.01M836 612h.01" stroke="#3d4854" stroke-width="5.76" stroke-linecap="round" fill="none"/><path d="M164 60h.01M172 60h.01M148 68h.01M156 68h.01M164 68h.01M172 68h.01M180 68h.01M188 68h.01M164 76h.01M172 76h.01M180 76h.01M188 76h.01M196 76h.01M204 76h.01M212 76h.01M220 76h.01M228 76h.01M164 84h.01M172 84h.01M180 84h.01M188 84h.01M196 84h.01M204 84h.01M212 84h.01M220 84h.01M156 92h.01M164 92h.01M172 92h.01M180 92h.01M188 92h.01M196 92h.01M204 92h.01M212 92h.01M156 100h.01M164 100h.01M172 100h.01M180 100h.01M188 100h.01M196 100h.01M204 100h.01M212 100h.01M220 100h.01M172 108h.01M180 108h.01M188 108h.01M196 108h.01M204 108h.01M220 108h.01M172 116h.01M180 116h.01M188 116h.01M196 116h.01M204 116h.01M212 116h.01M172 124h.01M180 124h.01M188 124h.01M196 124h.01M204 124h.01M212 124h.01M220 124h.01M164 132h.01M172 132h.01M180 132h.01M188 132h.01M196 132h.01M204 132h.01M212 132h.01M220 132h.01M228 132h.01M156 140h.01M164 140h.01M172 140h.01M180 140h.01M188 140h.01M196 140h.01M204 140h.01M212 140h.01M220 140h.01M228 140h.01M156 148h.01M164 148h.01M172 148h.01M180 148h.01M188 148h.01M196 148h.01M204 148h.01M212 148h.01M220 148h.01M228 148h.01M396 148h.01M412 148h.01M140 156h.01M148 156h.01M156 156h.01M164 156h.01M172 156h.01M180 156h.01M188 156h.01M196 156h.01M204 156h.01M212 156h.01M220 156h.01M228 156h.01M236 156h.01M380 156h.01M388 156h.01M396 156h.01M404 156h.01M412 156h.01M420 156h.01M116 164h.01M124 164h.01M132 164h.01M140 164h.01M148 164h.01M156 164h.01M164 164h.01M172 164h.01M180 164h.01M188 164h.01M196 164h.01M204 164h.01M212 164h.01M220 164h.01M228 164h.01M236 164h.01M244 164h.01M252 164h.01M324 164h.01M364 164h.01M372 164h.01M380 164h.01M388 164h.01M396 164h.01M404 164h.01M412 164h.01M420 164h.01M116 172h.01M124 172h.01M132 172h.01M140 172h.01M148 172h.01M156 172h.01M164 172h.01M172 172h.01M180 172h.01M188 172h.01M196 172h.01M204 172h.01M212 172h.01M220 172h.01M228 172h.01M236 172h.01M244 172h.01M252 172h.01M260 172h.01M268 172h.01M276 172h.01M284 172h.01M324 172h.01M372 172h.01M380 172h.01M388 172h.01M396 172h.01M404 172h.01M124 180h.01M132 180h.01M140 180h.01M148 180h.01M156 180h.01M164 180h.01M172 180h.01M180 180h.01M188 180h.01M196 180h.01M204 180h.01M212 180h.01M220 180h.01M228 180h.01M236 180h.01M244 180h.01M252 180h.01M260 180h.01M268 180h.01M276 180h.01M284 180h.01M292 180h.01M300 180h.01M308 180h.01M316 180h.01M324 180h.01M340 180h.01M348 180h.01M356 180h.01M364 180h.01M372 180h.01M380 180h.01M388 180h.01M396 180h.01M124 188h.01M132 188h.01M140 188h.01M148 188h.01M156 188h.01M164 188h.01M172 188h.01M180 188h.01M188 188h.01M196 188h.01M204 188h.01M212 188h.01M220 188h.01M228 188h.01M236 188h.01M244 188h.01M252 188h.01M260 188h.01M268 188h.01M276 188h.01M284 188h.01M292 188h.01M300 188h.01M308 188h.01M316 188h.01M324 188h.01M348 188h.01M356 188h.01M364 188h.01M372 188h.01M380 188h.01M388 188h.01M396 188h.01M132 196h.01M140 196h.01M148 196h.01M156 196h.01M164 196h.01M172 196h.01M180 196h.01M188 196h.01M196 196h.01M204 196h.01M212 196h.01M220 196h.01M228 196h.01M236 196h.01M244 196h.01M252 196h.01M260 196h.01M268 196h.01M276 196h.01M284 196h.01M292 196h.01M300 196h.01M308 196h.01M316 196h.01M372 196h.01M380 196h.01M388 196h.01M108 204h.01M116 204h.01M124 204h.01M132 204h.01M140 204h.01M148 204h.01M156 204h.01M164 204h.01M172 204h.01M180 204h.01M188 204h.01M196 204h.01M204 204h.01M212 204h.01M220 204h.01M228 204h.01M236 204h.01M244 204h.01M252 204h.01M260 204h.01M268 204h.01M276 204h.01M284 204h.01M292 204h.01M300 204h.01M308 204h.01M316 204h.01M324 204h.01M364 204h.01M372 204h.01M380 204h.01M388 204h.01M100 212h.01M108 212h.01M116 212h.01M124 212h.01M132 212h.01M140 212h.01M148 212h.01M156 212h.01M164 212h.01M172 212h.01M180 212h.01M188 212h.01M196 212h.01M204 212h.01M212 212h.01M220 212h.01M228 212h.01M236 212h.01M244 212h.01M252 212h.01M260 212h.01M268 212h.01M276 212h.01M284 212h.01M292 212h.01M300 212h.01M308 212h.01M316 212h.01M324 212h.01M372 212h.01M380 212h.01M124 220h.01M132 220h.01M140 220h.01M148 220h.01M156 220h.01M164 220h.01M172 220h.01M180 220h.01M188 220h.01M196 220h.01M204 220h.01M212 220h.01M220 220h.01M228 220h.01M236 220h.01M244 220h.01M252 220h.01M260 220h.01M268 220h.01M276 220h.01M284 220h.01M292 220h.01M300 220h.01M308 220h.01M316 220h.01M324 220h.01M372 220h.01M508 220h.01M516 220h.01M524 220h.01M532 220h.01M108 228h.01M116 228h.01M124 228h.01M132 228h.01M140 228h.01M148 228h.01M156 228h.01M164 228h.01M172 228h.01M180 228h.01M188 228h.01M196 228h.01M204 228h.01M212 228h.01M220 228h.01M228 228h.01M236 228h.01M244 228h.01M252 228h.01M260 228h.01M268 228h.01M276 228h.01M284 228h.01M292 228h.01M300 228h.01M308 228h.01M316 228h.01M324 228h.01M332 228h.01M492 228h.01M500 228h.01M508 228h.01M516 228h.01M524 228h.01M532 228h.01M116 236h.01M124 236h.01M132 236h.01M148 236h.01M156 236h.01M164 236h.01M172 236h.01M180 236h.01M188 236h.01M196 236h.01M204 236h.01M212 236h.01M220 236h.01M228 236h.01M236 236h.01M244 236h.01M252 236h.01M260 236h.01M268 236h.01M276 236h.01M284 236h.01M292 236h.01M300 236h.01M492 236h.01M500 236h.01M508 236h.01M516 236h.01M524 236h.01M532 236h.01M540 236h.01M148 244h.01M156 244h.01M164 244h.01M172 244h.01M180 244h.01M188 244h.01M196 244h.01M204 244h.01M212 244h.01M220 244h.01M228 244h.01M236 244h.01M244 244h.01M252 244h.01M260 244h.01M268 244h.01M276 244h.01M284 244h.01M292 244h.01M300 244h.01M308 244h.01M516 244h.01M524 244h.01M532 244h.01M148 252h.01M156 252h.01M164 252h.01M172 252h.01M180 252h.01M188 252h.01M196 252h.01M204 252h.01M212 252h.01M220 252h.01M228 252h.01M236 252h.01M244 252h.01M252 252h.01M260 252h.01M268 252h.01M276 252h.01M284 252h.01M292 252h.01M300 252h.01M452 252h.01M460 252h.01M516 252h.01M524 252h.01M148 260h.01M156 260h.01M164 260h.01M172 260h.01M180 260h.01M188 260h.01M196 260h.01M204 260h.01M212 260h.01M220 260h.01M228 260h.01M236 260h.01M244 260h.01M252 260h.01M260 260h.01M268 260h.01M276 260h.01M284 260h.01M436 260h.01M444 260h.01M452 260h.01M460 260h.01M468 260h.01M508 260h.01M516 260h.01M148 268h.01M156 268h.01M164 268h.01M172 268h.01M180 268h.01M188 268h.01M196 268h.01M204 268h.01M212 268h.01M220 268h.01M228 268h.01M236 268h.01M244 268h.01M252 268h.01M260 268h.01M268 268h.01M276 268h.01M436 268h.01M444 268h.01M452 268h.01M460 268h.01M468 268h.01M524 268h.01M156 276h.01M164 276h.01M172 276h.01M180 276h.01M188 276h.01M196 276h.01M204 276h.01M212 276h.01M220 276h.01M228 276h.01M236 276h.01M244 276h.01M252 276h.01M260 276h.01M436 276h.01M444 276h.01M452 276h.01M460 276h.01M468 276h.01M484 276h.01M492 276h.01M500 276h.01M524 276h.01M156 284h.01M164 284h.01M172 284h.01M180 284h.01M188 284h.01M196 284h.01M204 284h.01M212 284h.01M220 284h.01M228 284h.01M236 284h.01M244 284h.01M252 284h.01M444 284h.01M452 284h.01M460 284h.01M468 284h.01M476 284h.01M484 284h.01M492 284h.01M500 284h.01M508 284h.01M532 284h.01M156 292h.01M164 292h.01M172 292h.01M180 292h.01M188 292h.01M196 292h.01M204 292h.01M212 292h.01M220 292h.01M228 292h.01M236 292h.01M244 292h.01M252 292h.01M444 292h.01M452 292h.01M460 292h.01M468 292h.01M476 292h.01M484 292h.01M492 292h.01M500 292h.01M508 292h.01M540 292h.01M164 300h.01M172 300h.01M180 300h.01M188 300h.01M196 300h.01M204 300h.01M212 300h.01M220 300h.01M228 300h.01M444 300h.01M452 300h.01M460 300h.01M468 300h.01M476 300h.01M484 300h.01M492 300h.01M500 300h.01M508 300h.01M516 300h.01M548 300h.01M164 308h.01M172 308h.01M180 308h.01M188 308h.01M196 308h.01M204 308h.01M212 308h.01M220 308h.01M228 308h.01M444 308h.01M452 308h.01M460 308h.01M468 308h.01M476 308h.01M484 308h.01M492 308h.01M500 308h.01M508 308h.01M516 308h.01M548 308h.01M556 308h.01M172 316h.01M180 316h.01M188 316h.01M196 316h.01M204 316h.01M212 316h.01M220 316h.01M228 316h.01M444 316h.01M452 316h.01M460 316h.01M468 316h.01M476 316h.01M484 316h.01M492 316h.01M500 316h.01M516 316h.01M548 316h.01M556 316h.01M172 324h.01M180 324h.01M188 324h.01M196 324h.01M204 324h.01M212 324h.01M220 324h.01M228 324h.01M452 324h.01M460 324h.01M468 324h.01M476 324h.01M484 324h.01M548 324h.01M556 324h.01M172 332h.01M180 332h.01M188 332h.01M196 332h.01M204 332h.01M212 332h.01M220 332h.01M228 332h.01M452 332h.01M468 332h.01M476 332h.01M484 332h.01M548 332h.01M556 332h.01M180 340h.01M188 340h.01M196 340h.01M204 340h.01M212 340h.01M220 340h.01M228 340h.01M452 340h.01M548 340h.01M556 340h.01M180 348h.01M188 348h.01M196 348h.01M204 348h.01M212 348h.01M220 348h.01M452 348h.01M524 348h.01M532 348h.01M540 348h.01M548 348h.01M556 348h.01M188 356h.01M196 356h.01M204 356h.01M212 356h.01M220 356h.01M516 356h.01M524 356h.01M532 356h.01M540 356h.01M548 356h.01M188 364h.01M196 364h.01M204 364h.01M212 364h.01M444 364h.01M516 364h.01M524 364h.01M532 364h.01M188 372h.01M196 372h.01M204 372h.01M212 372h.01M444 372h.01M516 372h.01M524 372h.01M196 380h.01M204 380h.01M444 380h.01M452 380h.01M516 380h.01M444 388h.01M452 388h.01M460 388h.01M452 396h.01M460 396h.01M460 404h.01M468 404h.01M476 404h.01M652 404h.01M468 412h.01M476 412h.01M484 412h.01M644 412h.01M652 412h.01M660 412h.01M404 420h.01M412 420h.01M420 420h.01M428 420h.01M460 420h.01M468 420h.01M476 420h.01M484 420h.01M492 420h.01M636 420h.01M644 420h.01M652 420h.01M660 420h.01M668 420h.01M676 420h.01M412 428h.01M420 428h.01M428 428h.01M468 428h.01M476 428h.01M484 428h.01M492 428h.01M636 428h.01M644 428h.01M652 428h.01M660 428h.01M668 428h.01M420 436h.01M428 436h.01M436 436h.01M468 436h.01M476 436h.01M484 436h.01M492 436h.01M620 436h.01M628 436h.01M636 436h.01M644 436h.01M652 436h.01M428 444h.01M436 444h.01M444 444h.01M452 444h.01M476 444h.01M484 444h.01M492 444h.01M612 444h.01M620 444h.01M628 444h.01M636 444h.01M644 444h.01M652 444h.01M436 452h.01M444 452h.01M452 452h.01M460 452h.01M484 452h.01M492 452h.01M500 452h.01M588 452h.01M596 452h.01M604 452h.01M612 452h.01M620 452h.01M628 452h.01M636 452h.01M644 452h.01M652 452h.01M660 452h.01M444 460h.01M452 460h.01M460 460h.01M468 460h.01M476 460h.01M492 460h.01M500 460h.01M572 460h.01M588 460h.01M596 460h.01M604 460h.01M612 460h.01M620 460h.01M628 460h.01M636 460h.01M644 460h.01M652 460h.01M660 460h.01M452 468h.01M460 468h.01M468 468h.01M476 468h.01M484 468h.01M564 468h.01M572 468h.01M580 468h.01M588 468h.01M596 468h.01M604 468h.01M612 468h.01M620 468h.01M628 468h.01M636 468h.01M644 468h.01M652 468h.01M660 468h.01M668 468h.01M700 468h.01M740 468h.01M772 468h.01M780 468h.01M452 476h.01M460 476h.01M468 476h.01M476 476h.01M484 476h.01M492 476h.01M564 476h.01M572 476h.01M580 476h.01M588 476h.01M596 476h.01M604 476h.01M612 476h.01M620 476h.01M628 476h.01M636 476h.01M644 476h.01M652 476h.01M692 476h.01M724 476h.01M732 476h.01M780 476h.01M460 484h.01M468 484h.01M476 484h.01M484 484h.01M492 484h.01M564 484h.01M572 484h.01M580 484h.01M588 484h.01M596 484h.01M604 484h.01M612 484h.01M620 484h.01M628 484h.01M636 484h.01M644 484h.01M652 484h.01M684 484h.01M468 492h.01M476 492h.01M484 492h.01M492 492h.01M500 492h.01M572 492h.01M580 492h.01M588 492h.01M596 492h.01M604 492h.01M612 492h.01M620 492h.01M628 492h.01M636 492h.01M644 492h.01M652 492h.01M684 492h.01M692 492h.01M708 492h.01M716 492h.01M812 492h.01M820 492h.01M828 492h.01M836 492h.01M844 492h.01M468 500h.01M476 500h.01M484 500h.01M492 500h.01M500 500h.01M508 500h.01M580 500h.01M588 500h.01M596 500h.01M604 500h.01M612 500h.01M620 500h.01M628 500h.01M636 500h.01M644 500h.01M684 500h.01M692 500h.01M700 500h.01M828 500h.01M836 500h.01M844 500h.01M892 500h.01M476 508h.01M484 508h.01M492 508h.01M500 508h.01M508 508h.01M516 508h.01M580 508h.01M588 508h.01M596 508h.01M604 508h.01M612 508h.01M620 508h.01M628 508h.01M636 508h.01M644 508h.01M676 508h.01M684 508h.01M692 508h.01M700 508h.01M844 508h.01M876 508h.01M884 508h.01M892 508h.01M900 508h.01M908 508h.01M916 508h.01M484 516h.01M492 516h.01M500 516h.01M508 516h.01M516 516h.01M524 516h.01M596 516h.01M604 516h.01M612 516h.01M620 516h.01M628 516h.01M636 516h.01M644 516h.01M676 516h.01M684 516h.01M700 516h.01M708 516h.01M764 516h.01M780 516h.01M788 516h.01M796 516h.01M804 516h.01M836 516h.01M844 516h.01M852 516h.01M868 516h.01M876 516h.01M884 516h.01M892 516h.01M900 516h.01M908 516h.01M916 516h.01M924 516h.01M484 524h.01M492 524h.01M500 524h.01M508 524h.01M516 524h.01M524 524h.01M628 524h.01M684 524h.01M700 524h.01M708 524h.01M836 524h.01M852 524h.01M860 524h.01M868 524h.01M876 524h.01M884 524h.01M892 524h.01M900 524h.01M908 524h.01M916 524h.01M924 524h.01M500 532h.01M508 532h.01M516 532h.01M524 532h.01M684 532h.01M708 532h.01M876 532h.01M884 532h.01M892 532h.01M900 532h.01M908 532h.01M916 532h.01M924 532h.01M508 540h.01M516 540h.01M684 540h.01M716 540h.01M892 540h.01M900 540h.01M908 540h.01M916 540h.01M924 540h.01M532 548h.01M852 548h.01M900 548h.01M908 548h.01M916 548h.01M924 548h.01M524 556h.01M532 556h.01M540 556h.01M548 556h.01M580 556h.01M588 556h.01M900 556h.01M908 556h.01M916 556h.01M924 556h.01M532 564h.01M540 564h.01M548 564h.01M556 564h.01M564 564h.01M572 564h.01M580 564h.01M588 564h.01M596 564h.01M900 564h.01M908 564h.01M916 564h.01M924 564h.01M580 572h.01M588 572h.01M596 572h.01M604 572h.01M612 572h.01M620 572h.01M628 572h.01M892 572h.01M900 572h.01M908 572h.01M916 572h.01M924 572h.01M652 580h.01M660 580h.01M668 580h.01M692 580h.01M700 580h.01M708 580h.01M924 580h.01M684 588h.01M732 588h.01M740 588h.01M692 596h.01M732 596h.01" stroke="#39d353" stroke-width="5.76" stroke-linecap="round" fill="none"/><circle cx="500.8" cy="464.6" r="2.88" fill="#39d353"/><text x="188.6" y="217.1" font-size="14" fill="#58a6ff">IN</text><text x="466.3" y="290.3" font-size="14" fill="#58a6ff">TH</text><text x="472.0" y="420.6" font-size="14" fill="#58a6ff">MY</text><text x="516.6" y="450.3" font-size="14" fill="#58a6ff">SG</text><text x="582.9" y="516.6" font-size="14" fill="#58a6ff">ID</text><text x="532.6" y="225.1" font-size="14" fill="#58a6ff">VN</text><path d="M612.6 566.3l5 9h-10z" fill="#e3b341"/><text x="620.6" y="575.3" font-size="13" fill="#e3b341">ijen &#183; bromo</text></svg>